<svg id="Capa_1" enable-background="new 0 0 510 510" height="512" viewBox="0 0 510 510" width="512" xmlns="http://www.w3.org/2000/svg"><g><path d="m120 90h120v30h-120z"/><path d="m120 150h135v30h-135z"/><path d="m120 210h120v30h-120z"/><path d="m120 270h120v30h-120z"/><path d="m120 330h120v30h-120z"/><path d="m510 270c0-61.089-45.886-111.66-105-119.064v-52.149l-98.787-98.787h-246.213v30h-60v480h375v-60h30v-60.935c59.114-7.405 105-57.976 105-119.065zm-195-218.787 38.787 38.787h-38.787zm30 428.787h-315v-420h30v390h285zm-255-60v-390h195v90h90v30.936c-59.114 7.404-105 57.975-105 119.064s45.886 111.66 105 119.065v30.935zm300-60c-49.626 0-90-40.374-90-90s40.374-90 90-90 90 40.374 90 90-40.374 90-90 90z"/><path d="m375 278.787-19.394-19.393-21.212 21.212 40.606 40.607 70.606-70.607-21.212-21.212z"/></g></svg>