<?xml version="1.0" standalone="no"?>
<!DOCTYPE svg PUBLIC "-//W3C//DTD SVG 20010904//EN"
 "http://www.w3.org/TR/2001/REC-SVG-20010904/DTD/svg10.dtd">
<svg version="1.0" xmlns="http://www.w3.org/2000/svg"
 width="512.000000pt" height="512.000000pt" viewBox="0 0 512.000000 512.000000"
 preserveAspectRatio="xMidYMid meet">

<g transform="translate(0.000000,512.000000) scale(0.100000,-0.100000)"
fill="#000000" stroke="none">
<path d="M1300 5106 c-141 -38 -249 -143 -291 -284 -10 -34 -21 -48 -49 -62
-164 -84 -173 -317 -16 -415 l49 -30 471 -3 c325 -2 483 0 509 8 48 14 112 71
140 124 33 63 30 157 -6 218 -50 85 -133 128 -248 128 l-57 0 -16 46 c-70 206
-285 325 -486 270z m185 -153 c71 -24 139 -95 160 -167 31 -106 84 -146 195
-146 83 0 122 -16 139 -58 16 -37 5 -77 -26 -102 -25 -19 -42 -20 -470 -20
l-445 0 -29 29 c-52 53 -34 115 46 152 51 24 70 49 97 132 23 72 46 107 94
143 70 54 153 67 239 37z"/>
<path d="M3485 5100 c-75 -36 -1178 -834 -1202 -869 -17 -25 -23 -48 -23 -86
0 -48 5 -59 67 -147 86 -122 113 -142 192 -136 45 3 68 11 95 32 l36 27 0
-209 c0 -197 1 -211 21 -236 27 -34 77 -36 107 -3 21 23 22 30 22 288 l0 264
375 268 c207 148 380 267 385 265 4 -2 175 -122 379 -268 l370 -265 1 -527 0
-528 -175 0 -174 0 -3 363 c-4 497 26 462 -403 462 -275 0 -292 -1 -325 -21
-19 -11 -45 -35 -57 -54 -23 -33 -23 -36 -23 -391 l0 -359 -175 0 -175 0 0
143 c0 137 -1 144 -23 165 -33 31 -80 29 -106 -4 -19 -24 -21 -40 -21 -165 l0
-139 -262 0 c-145 0 -281 -5 -302 -10 -76 -17 -96 -51 -180 -307 -98 -297
-103 -269 80 -453 l134 -135 -350 -350 c-193 -193 -350 -346 -350 -340 0 5 45
146 101 314 140 422 143 412 -123 530 l-164 72 34 266 c33 258 33 267 17 310
-12 31 -29 52 -58 71 -35 24 -51 27 -143 30 l-104 4 0 89 0 89 35 0 c45 0 102
49 110 94 5 23 -8 84 -45 211 -40 138 -49 180 -38 184 7 2 25 18 41 34 52 56
45 83 -113 397 -153 304 -157 310 -238 310 -25 0 -49 -8 -66 -21 -18 -14 -75
-118 -168 -303 -127 -254 -139 -285 -135 -321 4 -29 15 -49 41 -73 20 -18 36
-37 36 -43 0 -7 -20 -81 -45 -166 -25 -84 -45 -167 -45 -184 0 -66 53 -119
120 -119 l30 0 0 -89 0 -89 -192 -4 c-220 -3 -244 -11 -285 -84 l-23 -39 0
-1319 c0 -1006 3 -1328 12 -1360 16 -55 99 -138 154 -154 49 -14 268 -16 293
-2 10 5 24 23 31 40 12 29 14 30 81 30 64 0 70 -2 79 -24 5 -13 19 -31 32 -40
20 -15 213 -16 2127 -16 1622 0 2113 3 2145 12 58 17 138 100 154 158 10 35
12 346 10 1370 l-3 1325 -23 33 c-47 64 -58 67 -359 70 l-273 3 0 470 c0 258
2 469 6 469 3 0 22 -11 42 -25 47 -32 122 -34 169 -5 33 20 126 137 158 199
21 41 17 117 -8 155 -17 25 -1142 835 -1207 868 -44 23 -85 22 -135 -2z m644
-545 c308 -220 560 -404 561 -408 0 -5 -21 -37 -46 -73 l-46 -64 -41 29 c-23
16 -240 170 -482 342 -241 172 -456 319 -478 326 -29 10 -48 11 -77 3 -25 -7
-213 -135 -517 -351 -262 -188 -482 -343 -488 -345 -5 -2 -31 27 -57 63 -45
64 -47 69 -30 84 14 13 923 664 1072 767 25 18 50 31 57 29 6 -1 264 -182 572
-402z m-3286 -572 l102 -208 -37 -36 c-50 -49 -49 -67 11 -272 l49 -167 -229
0 c-126 0 -229 1 -229 3 0 1 22 81 50 176 56 198 56 229 -1 274 l-31 24 104
206 c56 114 104 207 105 207 2 0 49 -93 106 -207z m-13 -923 l0 -90 -90 0 -90
0 0 90 0 90 90 0 90 0 0 -90z m283 -507 c-19 -142 -31 -274 -27 -293 9 -53 65
-100 179 -150 55 -24 123 -54 152 -66 l51 -23 -105 -317 c-113 -341 -114 -349
-70 -415 45 -66 136 -91 203 -56 43 23 751 737 764 770 15 41 12 93 -6 130 -9
18 -73 89 -141 159 l-125 126 64 194 65 193 846 3 847 2 0 -100 0 -100 -142
-71 c-162 -80 -188 -100 -188 -141 0 -15 32 -92 71 -169 39 -78 67 -145 62
-149 -4 -4 -72 -55 -149 -113 -138 -103 -154 -119 -154 -157 0 -20 147 -249
188 -292 33 -36 74 -37 107 -3 14 13 25 36 25 50 0 14 -28 67 -67 125 -58 87
-65 103 -52 115 8 8 73 58 144 113 82 62 133 108 139 125 8 23 -1 48 -62 172
l-71 145 100 51 c56 27 102 49 103 47 65 -91 224 -292 237 -299 10 -5 26 -9
35 -9 23 0 291 177 310 204 21 30 17 64 -11 91 -38 39 -69 32 -177 -40 -54
-36 -101 -65 -105 -65 -5 1 -50 57 -101 126 l-93 125 3 107 3 107 503 3 502 2
0 -830 0 -830 -713 0 c-554 0 -724 -3 -763 -13 -64 -17 -118 -58 -152 -116
-22 -38 -27 -58 -27 -116 1 -75 16 -117 64 -168 53 -58 93 -70 242 -77 114 -4
140 -8 157 -24 48 -43 31 -124 -29 -145 -21 -7 -154 -11 -392 -11 -344 0 -363
-1 -403 -21 -109 -52 -168 -189 -127 -295 4 -12 -13 -14 -100 -14 l-105 0 10
43 c17 76 -5 151 -66 215 -65 70 -36 66 -614 72 l-524 5 -24 28 c-26 31 -32
81 -11 108 26 34 55 39 215 39 217 0 278 24 336 130 65 119 17 265 -109 333
-40 22 -41 22 -862 25 l-823 3 0 829 0 830 498 0 498 0 -33 -257z"/>
<path d="M2329 1137 c-107 -30 -174 -122 -174 -237 1 -96 44 -167 130 -213 38
-21 55 -22 339 -25 325 -3 350 0 420 53 75 57 109 191 70 283 -19 47 -67 97
-119 125 -38 21 -54 22 -330 24 -211 2 -303 -1 -336 -10z m626 -173 c29 -31
33 -78 10 -110 -28 -42 -57 -45 -338 -42 l-267 3 -26 26 c-36 37 -36 94 1 126
26 23 29 23 311 23 l285 0 24 -26z"/>
</g>
</svg>
