<?xml version="1.0" standalone="no"?>
<!DOCTYPE svg PUBLIC "-//W3C//DTD SVG 20010904//EN"
 "http://www.w3.org/TR/2001/REC-SVG-20010904/DTD/svg10.dtd">
<svg version="1.0" xmlns="http://www.w3.org/2000/svg"
 width="512.000000pt" height="512.000000pt" viewBox="0 0 512.000000 512.000000"
 preserveAspectRatio="xMidYMid meet">

<g transform="translate(0.000000,512.000000) scale(0.100000,-0.100000)"
fill="#000000" stroke="none">
<path d="M2275 4935 c-214 -24 -445 -79 -645 -155 -134 -50 -368 -169 -390
-197 -28 -35 -42 -93 -31 -129 7 -25 583 -1028 704 -1225 41 -69 69 -92 124
-103 25 -6 54 2 138 39 261 114 518 112 755 -5 30 -15 68 -30 83 -34 38 -9 99
9 125 36 11 13 185 307 386 653 333 573 366 634 366 675 0 88 -45 126 -278
230 -422 189 -888 264 -1337 215z"/>
<path d="M2430 2954 c-134 -29 -275 -127 -351 -245 -230 -359 10 -835 437
-866 167 -12 312 43 434 166 86 86 132 169 155 278 85 400 -274 754 -675 667z"/>
<path d="M113 2540 c-108 -26 -128 -93 -103 -351 78 -801 486 -1483 1150
-1923 63 -42 131 -82 152 -88 47 -14 104 1 135 34 17 20 692 1178 737 1265 40
78 12 145 -90 213 -127 86 -240 213 -306 345 -41 80 -68 181 -83 308 -14 128
-26 156 -78 184 -30 17 -84 18 -757 20 -399 1 -740 -2 -757 -7z"/>
<path d="M3517 2541 c-42 -9 -80 -40 -96 -79 -5 -15 -15 -72 -20 -128 -16
-153 -69 -299 -152 -421 -44 -63 -147 -164 -217 -212 -80 -54 -100 -76 -113
-125 -8 -31 -8 -47 4 -75 32 -80 729 -1267 758 -1293 68 -58 117 -47 290 68
429 282 770 701 964 1184 109 270 184 634 185 891 0 80 -29 144 -81 174 -33
20 -52 20 -759 22 -399 0 -742 -2 -763 -6z"/>
</g>
</svg>
