<?xml version="1.0" standalone="no"?>
<!DOCTYPE svg PUBLIC "-//W3C//DTD SVG 20010904//EN"
 "http://www.w3.org/TR/2001/REC-SVG-20010904/DTD/svg10.dtd">
<svg version="1.0" xmlns="http://www.w3.org/2000/svg"
 width="512.000000pt" height="512.000000pt" viewBox="0 0 512.000000 512.000000"
 preserveAspectRatio="xMidYMid meet">

<g transform="translate(0.000000,512.000000) scale(0.100000,-0.100000)"
fill="#000000" stroke="none">
<path d="M2245 5109 c-245 -36 -460 -144 -637 -320 l-86 -87 -54 10 c-73 14
-239 3 -321 -21 -191 -56 -350 -173 -457 -338 -63 -96 -97 -187 -125 -338 -3
-16 -17 -23 -67 -32 -128 -25 -275 -119 -363 -233 -198 -257 -175 -610 55
-840 76 -75 148 -121 252 -158 69 -25 86 -26 294 -30 l221 -4 7 -64 c15 -145
78 -276 186 -384 76 -75 148 -120 252 -158 l73 -27 517 -3 518 -3 25 25 c33
33 33 79 0 111 l-24 25 -474 0 c-281 0 -496 4 -528 10 -264 50 -441 326 -374
583 54 208 250 367 453 367 61 0 92 32 92 97 0 80 27 184 72 273 103 210 332
349 574 350 230 0 463 -145 563 -352 44 -91 71 -192 71 -271 0 -37 5 -53 25
-72 53 -54 135 -15 135 65 0 73 -21 183 -52 268 -57 158 -182 310 -328 400
-41 25 -77 47 -79 49 -10 7 87 96 154 142 91 63 152 93 250 124 235 74 481 57
703 -48 254 -120 431 -325 512 -592 12 -39 27 -79 34 -88 8 -11 41 -22 95 -32
110 -19 177 -45 266 -104 119 -80 201 -187 253 -331 23 -64 26 -88 26 -198 0
-110 -3 -134 -26 -198 -37 -104 -83 -176 -158 -252 -76 -75 -147 -120 -252
-158 l-73 -27 -763 -5 -764 -5 -19 -24 c-27 -33 -24 -77 6 -107 l25 -25 762 3
c824 4 778 1 930 58 78 29 191 105 262 176 311 310 312 812 4 1123 -109 110
-210 169 -367 214 l-84 24 -23 62 c-149 396 -481 666 -895 728 l-109 17 -36
65 c-217 397 -679 625 -1129 560z"/>
<path d="M2665 2215 c-50 -49 -15 -135 55 -135 41 0 80 39 80 80 0 41 -39 80
-80 80 -19 0 -40 -9 -55 -25z"/>
<path d="M1586 1910 c-63 -16 -153 -70 -197 -117 -22 -24 -55 -74 -72 -111
-29 -61 -32 -76 -32 -163 0 -90 2 -99 37 -171 45 -91 103 -147 196 -191 61
-29 76 -32 162 -32 86 0 101 3 162 32 93 44 151 100 196 191 35 72 37 81 37
172 0 91 -2 100 -37 172 -68 136 -188 217 -336 224 -42 2 -94 -1 -116 -6z"/>
<path d="M2866 1910 c-63 -16 -153 -70 -197 -117 -22 -24 -55 -74 -72 -111
-29 -61 -32 -76 -32 -163 0 -90 2 -99 37 -171 45 -91 103 -147 196 -191 61
-29 76 -32 162 -32 86 0 101 3 162 32 93 44 151 100 196 191 35 72 37 81 37
172 0 91 -2 100 -37 172 -68 136 -188 217 -336 224 -42 2 -94 -1 -116 -6z"/>
<path d="M4146 1910 c-63 -16 -153 -70 -197 -117 -22 -24 -55 -74 -72 -111
-29 -61 -32 -76 -32 -163 0 -90 2 -99 37 -171 45 -91 103 -147 196 -191 61
-29 76 -32 162 -32 86 0 101 3 162 32 93 44 151 100 196 191 35 72 37 81 37
172 0 91 -2 100 -37 172 -68 136 -188 217 -336 224 -42 2 -94 -1 -116 -6z"/>
<path d="M946 790 c-63 -16 -153 -70 -197 -117 -22 -24 -55 -74 -72 -111 -29
-61 -32 -76 -32 -163 0 -90 2 -99 37 -171 45 -91 103 -147 196 -191 61 -29 76
-32 162 -32 86 0 101 3 162 32 93 44 151 100 196 191 35 72 37 81 37 172 0 91
-2 100 -37 172 -68 136 -188 217 -336 224 -42 2 -94 -1 -116 -6z"/>
<path d="M2226 790 c-63 -16 -153 -70 -197 -117 -22 -24 -55 -74 -72 -111 -29
-61 -32 -76 -32 -163 0 -90 2 -99 37 -171 45 -91 103 -147 196 -191 61 -29 76
-32 162 -32 86 0 101 3 162 32 93 44 151 100 196 191 35 72 37 81 37 172 0 91
-2 100 -37 172 -68 136 -188 217 -336 224 -42 2 -94 -1 -116 -6z"/>
<path d="M3506 790 c-63 -16 -153 -70 -197 -117 -22 -24 -55 -74 -72 -111 -29
-61 -32 -76 -32 -163 0 -90 2 -99 37 -171 45 -91 103 -147 196 -191 61 -29 76
-32 162 -32 86 0 101 3 162 32 93 44 151 100 196 191 35 72 37 81 37 172 0 91
-2 100 -37 172 -68 136 -188 217 -336 224 -42 2 -94 -1 -116 -6z"/>
</g>
</svg>
