<svg id="Capa_1" enable-background="new 0 0 512 512" height="512" viewBox="0 0 512 512" width="512" xmlns="http://www.w3.org/2000/svg"><g><path d="m444.664 334.022c-3.282-5.293-9.067-8.586-15.447-8.586-6.375-.328-5.976.526-13.072-.013-18.716-2.395-32.83-18.456-32.83-37.359v-156.74c0-22.419-7.031-43.768-20.332-61.735-2.466-3.331-7.164-4.031-10.492-1.566-3.329 2.465-4.029 7.161-1.565 10.491 11.376 15.367 17.389 33.629 17.389 52.811v156.74c0 26.074 19.214 48.282 44.869 52.092-2.09 24.2-15.113 45.226-33.949 58.317-.2.119-.394.248-.585.387-12.777 8.715-28.165 13.812-44.61 13.812h-151.868c-46.031 0-79.441-30.117-79.441-71.612v-.859c25.852-3.683 45.166-25.841 45.166-52.137v-156.74c0-48.998 39.863-88.861 88.861-88.861h42.696c17.203 0 33.889 4.921 48.255 14.231 3.477 2.252 8.121 1.261 10.374-2.215 2.253-3.477 1.261-8.121-2.215-10.374-16.802-10.888-36.309-16.643-56.414-16.643h-42.696c-57.269 0-103.861 46.592-103.861 103.861v90.563l-9.316-28.666c-1.181-3.633-3.706-6.589-7.11-8.323-3.317-1.689-7.082-2.01-10.638-.932l-10.242-31.516c-2.038-6.27-6.761-11.156-12.958-13.405l-40.596-14.735-11.124-34.229 27.167-15.289s0 0 0-.001c4.756-2.677 6.983-8.386 5.296-13.576l-5.303-16.318c-1.729-5.322-7.004-8.606-12.544-7.835l-30.451 4.294-.443-1.362c-1.28-3.94-5.51-6.092-9.452-4.815-3.94 1.28-6.095 5.512-4.815 9.452l25.876 79.622c-1.041.605-2.025 1.336-2.921 2.202-4.146 4.008-5.614 9.904-3.831 15.387l20.629 63.479c-3.509 1.215-6.368 3.688-8.058 7.008-1.734 3.403-2.039 7.28-.858 10.912l36.532 112.414c-14.19 6.596-26.957 16.194-37.297 28.264-17.048 19.9-26.436 45.31-26.436 71.547v36.571c0 6.893 5.608 12.501 12.501 12.501h83.664c4.143 0 7.5-3.358 7.5-7.5 0-4.143-3.358-7.5-7.5-7.5h-81.163v-34.071c0-43.044 28.345-79.865 68.78-91.351.78 23.709 10.637 44.976 27.967 60.151 17.239 15.094 40.827 23.407 66.418 23.407h73.653l-41.863 41.863h-78.836c-4.143 0-7.5 3.358-7.5 7.5 0 4.143 3.358 7.5 7.5 7.5h364.374c6.893 0 12.501-5.608 12.501-12.501v-36.571c0-45.026-27.247-84.607-67.336-101.443zm-424.878-278.181 24.928-3.515 3.51 10.799-22.039 12.405-.001-.001zm25.903 163.429 11.912-3.871c3.94-1.28 6.095-5.512 4.815-9.452-1.123-3.453-4.512-5.532-7.984-5.133l-20.647-63.541 43.731 15.873c1.822.661 3.21 2.098 3.81 3.942l10.237 31.502-6.729 2.187c-3.94 1.28-6.095 5.512-4.815 9.452s5.514 6.094 9.452 4.815l20.062-6.52 23.365 71.9v17.641c0 19.159-14.78 32.758-33.375 37.426-9.235 2.318-13.649 3.506-17.764 4.77zm382.175 124.734c1.384.389 2.754.811 4.109 1.26-.133.211-.288.422-.497.631l-4.592 4.593c.396-2.145.732-4.304.98-6.484zm-93.824 83.669c5.835 0 11.601-.543 17.242-1.584l-43.448 43.448h-72.658l41.863-41.863h57.001zm162.959 41.863h-167.949l58.466-58.465c3.858-2.657 7.547-5.603 11.019-8.85 5.042-4.715 9.488-9.923 13.331-15.501l30.219-30.219c1.59-1.59 2.834-3.419 3.723-5.384 30.774 15.988 51.192 48.123 51.192 84.348v34.071z"/><path d="m248.165 205.385c4.425-10.274 2.932-20.256-4.317-28.867-5.346-6.351-13.794-11.957-25.826-17.139-34.828-14.998-48.663-2.999-54.137 9.708-8.674 20.145 3.172 44.674 26.408 54.68 6.707 2.888 13.638 4.255 20.318 4.255 16.462.002 31.383-8.308 37.554-22.637zm-70.502-30.362c1.075-2.497 3.305-7.678 12.48-7.678 4.97 0 11.98 1.522 21.945 5.814 9.705 4.179 16.529 8.56 20.284 13.021 3.585 4.258 4.188 8.228 2.015 13.272-5.403 12.546-22.525 17.276-38.161 10.54-15.639-6.736-23.967-22.423-18.563-34.969z"/><path d="m348.315 200.826c5.257-10.48 5.783-21.751 1.482-31.738-5.472-12.707-19.31-24.704-54.136-9.708-12.033 5.182-20.48 10.788-25.826 17.139-7.248 8.611-8.742 18.593-4.317 28.867 6.172 14.33 21.09 22.64 37.555 22.639 6.678 0 13.613-1.367 20.318-4.255 11.036-4.754 19.887-12.902 24.924-22.944zm-69.018-1.375c-2.173-5.044-1.57-9.014 2.015-13.272 3.755-4.461 10.58-8.842 20.284-13.021 9.967-4.293 16.975-5.814 21.945-5.814 9.172 0 11.404 5.181 12.479 7.678 2.52 5.85 2.124 12.625-1.112 19.078-3.456 6.89-9.654 12.533-17.45 15.89-15.638 6.738-32.759 2.008-38.161-10.539z"/><circle cx="307.849" cy="190.189" r="10.539"/><circle cx="205.835" cy="190.189" r="10.539"/><path d="m221.203 302.281c6.334 0 12.332-2.058 17.344-5.951 3.017-2.343 9.921-5.078 19.456-5.078 9.536 0 16.44 2.735 19.455 5.078 10.973 8.973 30.245 7.676 39.7-4.984 4.638-5.967 6.673-13.383 5.732-20.883-.941-7.498-4.746-14.181-10.714-18.819-13.889-10.791-33.634-16.979-54.172-16.979s-40.283 6.189-54.173 16.979c-5.968 4.637-9.773 11.32-10.714 18.819-.941 7.498 1.094 14.915 5.731 20.882 5.396 6.951 13.545 10.936 22.355 10.936zm-13.204-29.95c.442-3.523 2.231-6.662 5.034-8.84 11.308-8.786 27.7-13.825 44.969-13.825s33.661 5.039 44.969 13.824c2.804 2.179 4.591 5.32 5.033 8.842.442 3.524-.514 7.007-2.693 9.811-2.179 2.805-5.318 4.592-8.84 5.034-3.526.436-7.007-.515-9.811-2.693-6.636-5.156-17.349-8.233-28.659-8.233-11.307 0-22.021 3.077-28.658 8.233-2.356 1.83-5.171 2.797-8.142 2.797-4.144 0-7.974-1.872-10.51-5.138-2.177-2.804-3.133-6.289-2.692-9.812z"/><path d="m236.902 270.474h42.201c2.353 0 3.304-3.073 1.338-4.364-6.212-4.079-13.991-6.507-22.438-6.507s-16.226 2.428-22.438 6.507c-1.967 1.29-1.015 4.364 1.337 4.364z"/></g></svg>