<svg id="Capa_1" enable-background="new 0 0 512.001 512.001" height="512" viewBox="0 0 512.001 512.001" width="512" xmlns="http://www.w3.org/2000/svg"><path d="m507.808 497.745c-.757-.373-76.436-38.365-141.011-130.132-2.389-3.395-7.078-4.21-10.47-1.821-3.394 2.388-4.209 7.076-1.821 10.47 44.791 63.652 94.042 101.93 122.582 120.709h-442.267c12.454-8.219 28.901-20.184 47.271-36.392 3.112-2.746 3.409-7.495.663-10.607-2.745-3.111-7.494-3.409-10.607-.663-37.792 33.344-67.663 48.292-67.955 48.436-3.134 1.544-4.79 5.044-3.997 8.446s3.825 5.809 7.318 5.809h496.971c3.493 0 6.526-2.407 7.318-5.809.795-3.402-.861-6.901-3.995-8.446z"/><path d="m248.486 360.126v68.686c0 4.15 3.364 7.515 7.515 7.515 4.15 0 7.515-3.364 7.515-7.515v-68.686c0-4.15-3.365-7.515-7.515-7.515s-7.515 3.364-7.515 7.515z"/><path d="m298.682 356.359c-3.991 1.141-6.3 5.3-5.159 9.291.587 2.054 14.972 50.754 66.565 90.838 3.494 2.714 8.714 1.752 11.022-2.013 1.975-3.221 1.18-7.54-1.801-9.856-47.358-36.793-61.109-82.333-61.337-83.107-1.144-3.986-5.304-6.295-9.29-5.153z"/><path d="m191.039 384.271c-16.129 52.733-55.208 80.435-55.6 80.709-3.098 2.15-4.125 6.413-2.334 9.734 2.097 3.887 7.256 5.134 10.893 2.62 1.776-1.228 43.698-30.75 61.412-88.666 1.214-3.969-1.019-8.17-4.988-9.384-3.971-1.215-8.169 1.019-9.383 4.987z"/><path d="m144.285 168.683c8.794 0 17.509-1.845 25.484-5.355 10.804 6.989 23.745 10.98 37.561 10.98 5.521 0 10.945-.639 16.219-1.908v52.041c-6.44 2.252-11.624 7.33-13.824 14.03-24.079 73.333-63.142 137.468-116.103 190.624-2.731 2.741-2.904 7.26-.381 10.197 2.816 3.276 7.976 3.473 11.027.411 30.484-30.595 56.495-64.711 77.85-102.02 21.814-4.557 34.336-18.353 42.77-27.653 1.48-1.632 3.298-3.638 4.776-5.066.717 1.75 1.489 3.937 2.086 5.625 3.728 10.553 9.362 26.5 24.25 26.5s20.521-15.948 24.249-26.5c.596-1.688 1.369-3.875 2.086-5.625 1.478 1.429 3.297 3.434 4.776 5.066 8.446 9.313 20.99 23.132 42.858 27.671 2.514 4.389 5.089 8.734 7.73 13.03 2.173 3.536 6.801 4.64 10.337 2.467s4.64-6.801 2.467-10.337c-19.876-32.339-36.102-67.46-48.228-104.389-2.2-6.699-7.384-11.778-13.824-14.03v-46.006c8.232-1.742 15.868-5.075 22.554-9.694 10.926 5.718 23.133 8.72 35.612 8.72 41.629 0 75.497-33.063 75.497-73.703s-33.867-73.703-75.497-73.703c-6.313 0-12.599.776-18.723 2.305-6.922-2.614-14.433-4.063-22.288-4.063-8.963 0-17.753 1.885-25.82 5.501-11.892-20.768-34.293-33.798-59.124-33.798-31.108 0-57.371 20.576-65.314 48.517-3.643-.645-7.342-.98-11.066-.98-34.193 0-62.011 27.173-62.011 60.572.003 33.4 27.821 60.573 62.014 60.573zm174.921 149.192c-9.224-5.035-15.737-12.183-20.96-17.942-6.278-6.923-12.211-13.463-20.375-11.189-6.48 1.803-8.941 8.771-11.792 16.839-2.318 6.561-5.82 16.477-10.078 16.477s-7.76-9.916-10.078-16.477c-2.85-8.068-5.312-15.036-11.792-16.839-8.164-2.269-14.096 4.267-20.375 11.189-5.203 5.738-11.687 12.853-20.856 17.886 12.172-23.715 22.556-48.625 31.104-74.659.977-2.975 3.814-4.974 7.06-4.974h49.875c3.246 0 6.083 1.999 7.06 4.973 8.492 25.867 18.947 50.876 31.207 74.716zm87.88-214.117c0 32.353-27.126 58.673-60.467 58.673-8.155 0-16.157-1.597-23.578-4.653 3.532-4.208 6.532-8.906 8.847-14.04 21.812-9.948 35.732-31.151 35.732-54.867 0-17.184-7.375-32.706-19.181-43.741 32.501.939 58.647 26.867 58.647 58.628zm-262.801-41.191c2.918 0 5.815.268 8.665.786-.077 1.756-.095 3.508-.022 5.264-4.724 6.187-8.262 13.054-10.536 20.452-1.219 3.967 1.008 8.172 4.975 9.391 3.968 1.217 8.172-1.008 9.391-4.975 1.98-6.441 5.214-12.369 9.613-17.618 2.393-2.855 1.535-6.264 1.535-9.668 0-28.214 23.668-51.168 52.759-51.168 21.566 0 40.753 12.527 48.883 31.914 1.756 4.189 7.007 5.879 10.877 3.488 7.531-4.649 16.239-7.106 25.183-7.106 25.906 0 46.982 20.431 46.982 45.544 0 18.578-11.469 35.128-29.22 42.164-1.944.771-3.478 2.316-4.235 4.264-6.205 15.971-21.5 27.449-38.964 29.241-3.833.393-6.748 3.622-6.748 7.476v51.141h-34.845v-61.095c0-5.266-5.541-8.97-10.41-6.934-6.597 2.754-13.609 4.151-20.839 4.151-24.768 0-45.917-16.327-51.431-39.703-.953-4.039-5-6.539-9.04-5.589-4.039.953-6.541 5-5.589 9.04 2.623 11.117 7.969 20.992 15.255 29.042-3.976 1.039-8.094 1.585-12.24 1.585-25.906 0-46.982-20.43-46.982-45.543.001-25.114 21.077-45.544 46.983-45.544z"/><path d="m107.56 246.674c15.821 0 28.693-12.621 28.693-28.135 0-15.513-12.872-28.134-28.693-28.134s-28.693 12.621-28.693 28.134c0 15.514 12.872 28.135 28.693 28.135zm0-41.239c7.534 0 13.664 5.879 13.664 13.105s-6.13 13.105-13.664 13.105-13.664-5.879-13.664-13.105c.001-7.227 6.13-13.105 13.664-13.105z"/><path d="m390.447 268.523c0 15.513 12.872 28.134 28.693 28.134s28.693-12.621 28.693-28.134-12.872-28.134-28.693-28.134c-15.821-.001-28.693 12.621-28.693 28.134zm42.358 0c0 7.226-6.13 13.105-13.664 13.105s-13.664-5.879-13.664-13.105 6.13-13.105 13.664-13.105 13.664 5.879 13.664 13.105z"/><path d="m86.382 367.64c15.821 0 28.693-12.621 28.693-28.134s-12.872-28.134-28.693-28.134-28.693 12.621-28.693 28.134 12.871 28.134 28.693 28.134zm0-41.239c7.534 0 13.664 5.879 13.664 13.105s-6.13 13.105-13.664 13.105-13.664-5.879-13.664-13.105 6.13-13.105 13.664-13.105z"/></svg>