<svg id="Layer_1" height="512" viewBox="0 0 128 128" width="512" xmlns="http://www.w3.org/2000/svg" data-name="Layer 1"><path d="m99 38a52.269 52.269 0 0 0 8.065-20.46 2.656 2.656 0 0 0 .056-.572c0-1.9-1.3-2.892-13.194-3.742-7.5-.537-17.464-.832-28.056-.832s-20.556.295-28.056.832c-11.892.85-13.194 1.839-13.194 3.742 0 .9.3 1.6 1.885 2.177 9.286 6.076 14.427 12.287 17.094 17.965-15.131 2.046-15.143 5.113-15.143 6.458 0 3.571 6.426 5.086 12.712 6.1 1.529.246 3.183.464 4.9.663a24.958 24.958 0 0 1 -.724 4.211 55.319 55.319 0 0 0 -1.78 10.028c-5.139.807-7.278 1.989-7.278 3.97 0 1.467 1.579 3.12 7.6 4.076 1.187 7.049 5.031 14.178 13.973 20.464 4.862 3.418 7.573 7.139 8.058 11.059a12.06 12.06 0 0 1 -2.533 8.56 1.75 1.75 0 0 0 2.335 2.577c.43-.309 10.557-7.68 11.621-17.21a14.827 14.827 0 0 0 -4.083-11.791c-3.33-3.751-4.8-7.775-4.377-11.962a14.957 14.957 0 0 1 .239-1.5c7.151-.913 8.968-2.7 8.968-4.269 0-1.719-1.588-2.823-5.341-3.617a51.463 51.463 0 0 1 11.344-11.071c1.4-1.049 2.711-2.121 3.948-3.207 2.862-.27 5.549-.594 7.958-.982 6.285-1.013 12.711-2.528 12.711-6.1 0-2.523-2.942-4.232-9.708-5.567zm-33.125-22.1c13.629 0 24.251.484 30.854 1.074-6.6.59-17.225 1.073-30.854 1.073s-24.251-.487-30.854-1.077c6.603-.59 17.225-1.07 30.854-1.07zm-31.756 4.511c1.1.1 2.329.2 3.7.3 7.5.536 17.464.831 28.056.831s20.556-.295 28.056-.831a83.969 83.969 0 0 0 9.169-1.011 50.66 50.66 0 0 1 -3.858 10.7c-2.843.713-13.159 3.075-22.932 2.522a1.75 1.75 0 1 0 -.2 3.494c1.088.062 2.177.089 3.261.089a88.26 88.26 0 0 0 17.639-2 56.793 56.793 0 0 1 -10.46 12.769c-5.119.445-11.15.726-17.967.726-7.24 0-13.6-.317-18.92-.811a28.034 28.034 0 0 0 -1.85-9.013 1.752 1.752 0 0 0 -.229-.558c-2.934-7.259-8.452-13.084-13.465-17.207zm-1.9 23.181c.86-.586 3.765-1.983 12.709-3.126a25.5 25.5 0 0 1 1.2 6.352c-7.607-.897-12.481-2.155-13.91-3.226zm9.3 24.95c.514-.13 1.17-.269 1.958-.407.006.271.014.543.027.815-.764-.133-1.43-.271-1.983-.408zm24.971 13.379a20.686 20.686 0 0 1 -5.6.172 1.749 1.749 0 0 0 -.36 3.48 24.372 24.372 0 0 0 2.53.131 23.14 23.14 0 0 0 5.027-.537 24.58 24.58 0 0 0 2.562 3.433c2.529 2.848 3.583 5.815 3.223 9.068-.384 3.473-2.347 6.708-4.449 9.26a13.938 13.938 0 0 0 -.016-3.16c-.592-4.965-3.8-9.525-9.525-13.551-7.551-5.308-11.077-11.2-12.345-17.164 2.612.231 5.79.365 9.657.365 3.231 0 5.985-.093 8.326-.258-.039.267-.086.534-.113.8a17.137 17.137 0 0 0 1.083 7.961zm6.377-13.379c-.674.167-1.508.336-2.5.5.138-.307.276-.614.433-.922.844.14 1.529.285 2.067.422zm-4.483-3.271-.023.038a24.7 24.7 0 0 0 -1.949 4.216c-2.534.235-5.608.392-9.218.392a97.319 97.319 0 0 1 -10.159-.485q-.108-1.5-.067-2.992a1.716 1.716 0 0 0 .032-.574v-.016a43.169 43.169 0 0 1 .9-6.853 29.2 29.2 0 0 0 9.031 1.648c.533 0 1.07-.022 1.6-.069a1.75 1.75 0 0 0 -.306-3.486 24.3 24.3 0 0 1 -9.525-1.52c.012-.046.023-.093.035-.139a29.147 29.147 0 0 0 .829-4.74c5.749.525 12.247.809 19.02.809 4.625 0 9.112-.137 13.334-.387-6.292 4.722-10.813 9.458-13.534 14.158zm23.781-18.591a60.212 60.212 0 0 0 4.65-5.526c5.577.975 7.521 1.958 8.162 2.416-1.323 1.023-5.804 2.219-12.812 3.11z"/><path d="m98.9 57.146a4.813 4.813 0 1 0 4.812 4.812 4.818 4.818 0 0 0 -4.812-4.812zm0 6.125a1.313 1.313 0 1 1 1.312-1.313 1.314 1.314 0 0 1 -1.312 1.313z"/><path d="m24.167 26.25a4.875 4.875 0 1 0 4.875 4.875 4.881 4.881 0 0 0 -4.875-4.875zm0 6.25a1.375 1.375 0 1 1 1.375-1.375 1.377 1.377 0 0 1 -1.375 1.375z"/><path d="m37.583 78.75a4.959 4.959 0 1 0 4.959 4.958 4.965 4.965 0 0 0 -4.959-4.958zm0 6.417a1.459 1.459 0 1 1 1.459-1.459 1.46 1.46 0 0 1 -1.459 1.459z"/><path d="m84.042 76.75a4.917 4.917 0 1 0 4.916 4.917 4.923 4.923 0 0 0 -4.916-4.917zm0 6.333a1.417 1.417 0 1 1 1.416-1.416 1.418 1.418 0 0 1 -1.416 1.416z"/></svg>